<svg width="136" height="36" viewBox="0 0 136 36" fill="none" xmlns="http://www.w3.org/2000/svg">
<path d="M5.04 14.8455C5.688 13.7655 6.576 12.888 7.704 12.213C8.856 11.538 10.164 11.2005 11.628 11.2005C13.332 11.2005 14.868 11.673 16.236 12.618C17.628 13.563 18.72 14.913 19.512 16.668C20.328 18.396 20.736 20.4075 20.736 22.7025C20.736 24.9975 20.328 27.036 19.512 28.818C18.72 30.573 17.628 31.9365 16.236 32.9085C14.868 33.8805 13.332 34.3665 11.628 34.3665C10.14 34.3665 8.832 34.0425 7.704 33.3945C6.6 32.7195 5.712 31.8555 5.04 30.8025V34.002H0V4.032H5.04V14.8455ZM15.588 22.7025C15.588 21.3525 15.336 20.1915 14.832 19.2195C14.352 18.2205 13.704 17.4645 12.888 16.9515C12.1004 16.4397 11.2055 16.1741 10.296 16.182C9.384 16.182 8.52 16.452 7.704 16.992C6.912 17.505 6.264 18.261 5.76 19.26C5.28 20.259 5.04 21.4335 5.04 22.7835C5.04 24.1335 5.28 25.308 5.76 26.307C6.264 27.306 6.912 28.0755 7.704 28.6155C8.52 29.1285 9.384 29.385 10.296 29.385C11.232 29.385 12.096 29.115 12.888 28.575C13.704 28.035 14.352 27.2655 14.832 26.2665C15.336 25.2675 15.588 24.0795 15.588 22.7025ZM26.954 8.892C26.066 8.892 25.322 8.5815 24.722 7.9605C24.146 7.3125 23.858 6.516 23.858 5.571C23.858 4.626 24.146 3.843 24.722 3.222C25.322 2.574 26.066 2.25 26.954 2.25C27.842 2.25 28.574 2.574 29.15 3.222C29.75 3.843 30.05 4.626 30.05 5.571C30.05 6.516 29.75 7.3125 29.15 7.9605C28.574 8.5815 27.842 8.892 26.954 8.892ZM29.438 11.565V34.002H24.398V11.565H29.438ZM46.226 34.002L39.458 24.444V34.002H34.418V4.032H39.458V21.0825L46.154 11.565H52.706L43.922 22.824L52.778 34.002H46.226ZM53.145 22.7835C53.145 20.4615 53.565 18.4365 54.405 16.7085C55.245 14.9535 56.409 13.6035 57.897 12.6585C59.385 11.6865 61.089 11.2005 63.009 11.2005C65.481 11.2005 67.521 11.9025 69.129 13.3065C70.761 14.6835 71.853 16.6275 72.405 19.1385H66.97C66.682 18.1665 66.19 17.4105 65.494 16.8705C64.822 16.3035 63.982 16.02 62.974 16.02C61.534 16.02 60.394 16.614 59.554 17.802C58.714 18.963 58.294 20.6235 58.294 22.7835C58.294 24.9165 58.714 26.577 59.554 27.765C60.394 28.926 61.534 29.5065 62.974 29.5065C65.014 29.5065 66.346 28.4805 66.97 26.4285H72.406C71.854 28.8585 70.762 30.789 69.13 32.22C67.498 33.651 65.458 34.3665 63.01 34.3665C61.09 34.3665 59.386 33.894 57.898 32.949C56.4218 31.9907 55.2125 30.5882 54.406 28.899C53.566 27.144 53.146 25.1055 53.146 22.7835H53.145ZM80.138 15.048C80.756 13.8932 81.6227 12.9321 82.658 12.2535C83.714 11.5785 84.914 11.241 86.258 11.241V17.1945H84.926C83.342 17.1945 82.142 17.613 81.326 18.45C80.534 19.287 80.138 20.745 80.138 22.824V34.002H75.098V11.565H80.138V15.048ZM101.712 30.8025C101.16 31.8285 100.26 32.6925 99.012 33.3945C97.764 34.0695 96.42 34.407 94.98 34.407C93.732 34.407 92.604 34.1235 91.596 33.5565C90.588 32.9895 89.796 32.2065 89.22 31.2075C88.644 30.2085 88.356 29.061 88.356 27.765C88.356 25.686 89.04 23.985 90.408 22.662C91.8 21.339 93.876 20.6775 96.636 20.6775H101.712C101.664 19.2465 101.292 18.1125 100.596 17.2755C99.924 16.4115 98.988 15.9795 97.788 15.9795C96.732 15.9795 95.856 16.3035 95.16 16.9515C94.464 17.5725 94.02 18.45 93.828 19.584H88.788C89.028 17.964 89.544 16.5195 90.336 15.2505C91.1449 13.9612 92.2362 12.9288 93.504 12.2535C94.824 11.5245 96.3 11.16 97.932 11.16C99.612 11.16 101.124 11.5515 102.468 12.3345C103.803 13.0825 104.916 14.2503 105.672 15.696C106.44 17.154 106.824 18.8685 106.824 20.8395V34.002H101.712V30.8025ZM96.456 29.8305C97.296 29.8305 98.112 29.628 98.904 29.223C99.72 28.818 100.392 28.2105 100.92 27.4005C101.448 26.5905 101.712 25.632 101.712 24.525V24.363H96.924C95.772 24.363 94.908 24.6195 94.332 25.1325C93.78 25.6455 93.504 26.3205 93.504 27.1575C93.504 27.9675 93.756 28.6155 94.26 29.1015C94.788 29.5875 95.52 29.8305 96.456 29.8305ZM117.453 16.2225V34.002H112.341V16.2225H110.073V11.565H112.341V10.431C112.341 7.677 113.037 5.652 114.429 4.356C115.821 3.06 117.921 2.4525 120.729 2.5335V7.3125C119.505 7.2855 118.653 7.515 118.173 8.001C117.693 8.487 117.453 9.3645 117.453 10.6335V11.565H124.003V6.0165H129.079V11.565H133.543V16.2225H129.079V27.0765C129.079 27.8325 129.235 28.386 129.547 28.737C129.883 29.061 130.435 29.223 131.203 29.223H133.543V34.002H130.375C126.127 34.002 124.003 31.68 124.003 27.036V16.2225H117.453Z" fill="white"/>
</svg>
