<svg width="16" height="16" viewBox="0 0 16 16" fill="none" xmlns="http://www.w3.org/2000/svg">
<path d="M0.72762 3.63592C1.12688 3.63592 1.45415 3.30865 1.45415 2.90939V2.18177C1.45524 1.78141 1.7825 1.45415 2.18177 1.45415H2.90939C3.30865 1.45415 3.63592 1.12688 3.63592 0.72762C3.63592 0.327265 3.30865 0 2.90939 0H2.18177C0.97416 0 0 0.97416 0 2.18177V2.90939C0 3.30865 0.327265 3.63592 0.72762 3.63592ZM2.90939 14.5448H2.18177C1.98916 14.5442 1.80458 14.4675 1.66828 14.3314C1.53198 14.1953 1.45501 14.0108 1.45415 13.8182V13.0906C1.45415 12.6903 1.12688 12.3641 0.72762 12.3641C0.327265 12.3641 0 12.6913 0 13.0906V13.8182C0 15.0258 0.97416 16 2.18177 16H2.90939C3.30865 16 3.63592 15.6727 3.63592 15.2724C3.63592 14.872 3.30865 14.5459 2.90939 14.5459V14.5448ZM13.8182 0H13.0917C12.6913 0 12.3641 0.327265 12.3641 0.72762C12.3641 1.12688 12.6913 1.45415 13.0917 1.45415H13.8182C14.2186 1.45415 14.5459 1.78141 14.5459 2.18177V2.90939C14.5459 3.30865 14.8731 3.63592 15.2735 3.63592C15.6727 3.63592 16 3.30865 16 2.90939V2.18177C16 0.97416 15.0258 0 13.8182 0ZM15.2735 12.363C14.8731 12.363 14.5459 12.6903 14.5459 13.0906V13.8182C14.5459 14.2186 14.2186 14.5459 13.8182 14.5459H13.0917C12.6913 14.5459 12.3641 14.8731 12.3641 15.2724C12.3641 15.6727 12.6913 16 13.0917 16H13.8182C15.0258 16 16 15.0258 16 13.8182V13.0906C16 12.6903 15.6727 12.3641 15.2735 12.3641V12.363ZM13.0895 10.0874V5.91259C13.0895 5.38897 12.8135 4.90898 12.363 4.6548L8.72598 2.56031C8.50552 2.43094 8.25453 2.36275 7.99891 2.36275C7.74329 2.36275 7.4923 2.43094 7.27183 2.56031L3.63592 4.64608C3.18429 4.90789 2.9083 5.38788 2.9083 5.9115V10.0863C2.9083 10.6099 3.18429 11.0899 3.63592 11.3441L7.27183 13.4386C7.4923 13.568 7.74329 13.6362 7.99891 13.6362C8.25453 13.6362 8.50552 13.568 8.72598 13.4386L12.3641 11.3452C12.5858 11.2187 12.7699 11.0356 12.8976 10.8146C13.0252 10.5936 13.0918 10.3426 13.0906 10.0874H13.0895ZM7.27183 11.7597L4.36245 10.0874V6.71985L7.27183 8.41399V11.7597ZM7.99945 7.1562L5.11952 5.47624L7.99945 3.81809L10.8794 5.47624L7.99945 7.1562ZM11.6354 10.0874L8.72598 11.7597V8.41399L11.6354 6.71985V10.0874Z" fill="#9C9C9C"/>
</svg>
