<svg width="32" height="31" viewBox="0 0 32 31" fill="none" xmlns="http://www.w3.org/2000/svg">
<path d="M16 0C11.6533 0 11.1107 0.0189915 9.404 0.0911593C7.7 0.167125 6.54 0.421612 5.52 0.797643C4.468 1.18507 3.57467 1.70544 2.68533 2.54992C1.796 3.39442 1.24667 4.24144 0.84 5.24166C0.444 6.21022 0.174667 7.31173 0.096 8.92981C0.016 10.5504 0 11.0657 0 15.1932C0 19.3207 0.02 19.836 0.096 21.4566C0.176 23.0735 0.444 24.1762 0.84 25.1448C1.248 26.1425 1.796 26.992 2.68533 27.8365C3.57467 28.6797 4.46667 29.2026 5.52 29.5888C6.54133 29.9636 7.70133 30.2205 9.404 30.2953C11.1107 30.3712 11.6533 30.3864 16 30.3864C20.3467 30.3864 20.8893 30.3674 22.596 30.2953C24.2987 30.2193 25.46 29.9636 26.48 29.5888C27.5307 29.2013 28.4253 28.6797 29.3147 27.8365C30.2027 26.992 30.7533 26.1463 31.16 25.1448C31.5547 24.1762 31.8253 23.0735 31.904 21.4566C31.984 19.836 32 19.3207 32 15.1932C32 11.0657 31.98 10.5504 31.904 8.92981C31.824 7.31299 31.5547 6.20896 31.16 5.24166C30.752 4.2427 30.2027 3.39442 29.3147 2.54992C28.4253 1.70544 27.5347 1.18381 26.48 0.797643C25.46 0.421612 24.2987 0.16586 22.596 0.0911593C20.8893 0.0151932 20.3467 0 16 0ZM16 2.73478C20.2707 2.73478 20.78 2.75503 22.4667 2.82467C24.0267 2.89431 24.8733 3.13993 25.436 3.3501C26.1853 3.62484 26.716 3.95403 27.2787 4.48453C27.8373 5.01629 28.184 5.52147 28.4733 6.23301C28.692 6.76731 28.9533 7.57128 29.024 9.05262C29.1 10.6555 29.1173 11.1366 29.1173 15.1932C29.1173 19.2498 29.0973 19.7322 29.0187 21.3338C28.9373 22.8152 28.6773 23.6191 28.4573 24.1534C28.1587 24.8649 27.8187 25.3689 27.2587 25.9032C26.7 26.4336 26.16 26.7628 25.4187 27.0375C24.8587 27.2452 23.9987 27.4933 22.4387 27.5605C20.74 27.6326 20.24 27.6491 15.96 27.6491C11.6787 27.6491 11.1787 27.6301 9.48133 27.5554C7.92 27.4782 7.06 27.2313 6.5 27.0224C5.74133 26.7388 5.22 26.416 4.66133 25.8842C4.1 25.3537 3.74133 24.8409 3.46133 24.137C3.24133 23.6052 2.98267 22.7886 2.90133 21.3072C2.84133 19.712 2.82 19.2194 2.82 15.1742C2.82 11.1278 2.84133 10.634 2.90133 9.0197C2.98267 7.53837 3.24133 6.72299 3.46133 6.19123C3.74133 5.46956 4.1 4.97578 4.66133 4.44275C5.22 3.91225 5.74133 3.5704 6.5 3.30579C7.06 3.09562 7.90133 2.84873 9.46133 2.77276C11.1613 2.71579 11.6613 2.69679 15.94 2.69679L16 2.73478ZM16 7.3915C11.46 7.3915 7.784 10.8859 7.784 15.1932C7.784 19.5043 11.464 22.9949 16 22.9949C20.54 22.9949 24.216 19.5005 24.216 15.1932C24.216 10.8821 20.536 7.3915 16 7.3915ZM16 20.2576C13.0533 20.2576 10.6667 17.9913 10.6667 15.1932C10.6667 12.3951 13.0533 10.1288 16 10.1288C18.9467 10.1288 21.3333 12.3951 21.3333 15.1932C21.3333 17.9913 18.9467 20.2576 16 20.2576ZM26.4613 7.08383C26.4613 8.09038 25.6 8.90702 24.5413 8.90702C23.4813 8.90702 22.6213 8.08912 22.6213 7.08383C22.6213 6.07855 23.4827 5.26191 24.5413 5.26191C25.5987 5.26065 26.4613 6.07855 26.4613 7.08383Z" fill="white"/>
</svg>
