<svg width="32" height="23" viewBox="0 0 32 23" fill="none" xmlns="http://www.w3.org/2000/svg">
<path d="M31.3307 4.09183C31.1499 3.44519 30.7934 2.85501 30.2968 2.38039C29.8003 1.90576 29.1811 1.56334 28.5013 1.38743C26.0067 0.748047 16 0.748047 16 0.748047C16 0.748047 5.99333 0.748047 3.49733 1.38743C2.81788 1.56366 2.19906 1.9062 1.70277 2.38078C1.20648 2.85538 0.850122 3.4454 0.669333 4.09183C0 6.47716 0 11.4529 0 11.4529C0 11.4529 0 16.4287 0.669333 18.814C0.850115 19.4607 1.20663 20.0509 1.70319 20.5255C2.19974 21.0001 2.8189 21.3425 3.49867 21.5184C5.99333 22.1578 16 22.1578 16 22.1578C16 22.1578 26.0067 22.1578 28.5027 21.5184C29.1825 21.3427 29.8017 21.0003 30.2983 20.5257C30.7949 20.051 31.1513 19.4607 31.332 18.814C32 16.4287 32 11.4529 32 11.4529C32 11.4529 32 6.47716 31.3307 4.09183ZM12.7267 15.9704V6.93552L21.0907 11.4529L12.7267 15.9704Z" fill="white"/>
</svg>
